<?xml version="1.0" encoding="UTF-8" standalone="no"?>
<!DOCTYPE svg PUBLIC "-//W3C//DTD SVG 1.1//EN"
 "http://www.w3.org/Graphics/SVG/1.1/DTD/svg11.dtd">
<!-- Generated by graphviz version 11.0.0 (20240428.1522)
 -->
<!-- Title: G Pages: 1 -->
<svg width="339pt" height="1288pt"
 viewBox="0.00 0.00 339.25 1288.10" xmlns="http://www.w3.org/2000/svg" xmlns:xlink="http://www.w3.org/1999/xlink">
<g id="graph0" class="graph" transform="scale(1 1) rotate(0) translate(4 1284.1)">
<title>G</title>
<polygon fill="white" stroke="none" points="-4,4 -4,-1284.1 335.25,-1284.1 335.25,4 -4,4"/>
<g id="clust1" class="cluster">
<title>cluster_foreach_node</title>
<polygon fill="none" stroke="black" points="8,-415.6 8,-932.1 268,-932.1 268,-415.6 8,-415.6"/>
<text text-anchor="middle" x="51.25" y="-914.8" font-family="Times,serif" font-size="14.00">foreach node</text>
</g>
<!-- example_node -->
<g id="node1" class="node">
<title>example_node</title>
<g id="a_node1"><a xlink:href="https://github.com/guy4261/polkadot/blob/main/README.md" xlink:title="example_node">
<ellipse fill="lightgreen" stroke="lightgreen" cx="132" cy="-1258.1" rx="65.17" ry="18"/>
<text text-anchor="middle" x="132" y="-1253.05" font-family="Times,serif" font-size="14.00">example_node</text>
</a>
</g>
</g>
<!-- dotfile -->
<g id="node2" class="node">
<title>dotfile</title>
<polygon fill="none" stroke="black" points="273,-1276.1 219,-1276.1 219,-1240.1 273,-1240.1 273,-1276.1"/>
<polygon fill="none" stroke="black" points="277,-1280.1 215,-1280.1 215,-1236.1 277,-1236.1 277,-1280.1"/>
<text text-anchor="middle" x="246" y="-1253.05" font-family="Times,serif" font-size="14.00">dotfile</text>
</g>
<!-- dotfile_read -->
<g id="node3" class="node">
<title>dotfile_read</title>
<g id="a_node3"><a xlink:href="https://github.com/guy4261/polkadot2/blob/main/polkadot.py#L29" xlink:title="dotfile_read">
<ellipse fill="red" stroke="red" cx="246" cy="-1178.1" rx="55.45" ry="18"/>
<ellipse fill="none" stroke="red" cx="246" cy="-1178.1" rx="59.45" ry="22"/>
<text text-anchor="middle" x="246" y="-1173.05" font-family="Times,serif" font-size="14.00">dotfile_read</text>
</a>
</g>
</g>
<!-- dotfile&#45;&gt;dotfile_read -->
<g id="edge1" class="edge">
<title>dotfile&#45;&gt;dotfile_read</title>
<path fill="none" stroke="black" d="M246,-1235.79C246,-1228.39 246,-1219.92 246,-1211.82"/>
<polygon fill="black" stroke="black" points="249.5,-1211.9 246,-1201.9 242.5,-1211.9 249.5,-1211.9"/>
</g>
<!-- graph_object -->
<g id="node4" class="node">
<title>graph_object</title>
<polygon fill="none" stroke="black" points="289.25,-1120.1 202.75,-1120.1 202.75,-1084.1 289.25,-1084.1 289.25,-1120.1"/>
<text text-anchor="middle" x="246" y="-1097.05" font-family="Times,serif" font-size="14.00">graph_object</text>
</g>
<!-- dotfile_read&#45;&gt;graph_object -->
<g id="edge2" class="edge">
<title>dotfile_read&#45;&gt;graph_object</title>
<path fill="none" stroke="black" d="M246,-1155.7C246,-1148.21 246,-1139.69 246,-1131.71"/>
<polygon fill="black" stroke="black" points="249.5,-1131.75 246,-1121.75 242.5,-1131.75 249.5,-1131.75"/>
</g>
<!-- get_nodes -->
<g id="node5" class="node">
<title>get_nodes</title>
<ellipse fill="none" stroke="black" cx="208" cy="-1030.1" rx="48.28" ry="18"/>
<text text-anchor="middle" x="208" y="-1025.05" font-family="Times,serif" font-size="14.00">get_nodes</text>
</g>
<!-- graph_object&#45;&gt;get_nodes -->
<g id="edge3" class="edge">
<title>graph_object&#45;&gt;get_nodes</title>
<path fill="none" stroke="black" d="M236.61,-1083.8C232.42,-1076.08 227.39,-1066.81 222.72,-1058.21"/>
<polygon fill="black" stroke="black" points="225.85,-1056.65 218.01,-1049.53 219.7,-1059.99 225.85,-1056.65"/>
</g>
<!-- graph_object_0 -->
<g id="node17" class="node">
<title>graph_object_0</title>
<polygon fill="none" stroke="black" points="331.25,-387.6 244.75,-387.6 244.75,-351.6 331.25,-351.6 331.25,-387.6"/>
<polyline fill="none" stroke="black" points="256.75,-387.6 244.75,-375.6"/>
<polyline fill="none" stroke="black" points="244.75,-363.6 256.75,-351.6"/>
<polyline fill="none" stroke="black" points="319.25,-351.6 331.25,-363.6"/>
<polyline fill="none" stroke="black" points="331.25,-375.6 319.25,-387.6"/>
<text text-anchor="middle" x="288" y="-364.55" font-family="Times,serif" font-size="14.00">graph_object</text>
</g>
<!-- graph_object&#45;&gt;graph_object_0 -->
<!-- node_list -->
<g id="node6" class="node">
<title>node_list</title>
<polygon fill="none" stroke="black" points="231.75,-976.1 166.25,-976.1 166.25,-940.1 231.75,-940.1 231.75,-976.1"/>
<text text-anchor="middle" x="199" y="-953.05" font-family="Times,serif" font-size="14.00">node_list</text>
</g>
<!-- get_nodes&#45;&gt;node_list -->
<g id="edge4" class="edge">
<title>get_nodes&#45;&gt;node_list</title>
<path fill="none" stroke="black" d="M205.78,-1011.8C204.83,-1004.42 203.7,-995.62 202.63,-987.35"/>
<polygon fill="black" stroke="black" points="206.14,-987.18 201.39,-977.71 199.2,-988.07 206.14,-987.18"/>
</g>
<!-- a_node -->
<g id="node7" class="node">
<title>a_node</title>
<polygon fill="none" stroke="black" points="221,-899.6 167,-899.6 167,-863.6 221,-863.6 221,-899.6"/>
<text text-anchor="middle" x="194" y="-876.55" font-family="Times,serif" font-size="14.00">node</text>
</g>
<!-- node_list&#45;&gt;a_node -->
<g id="edge5" class="edge">
<title>node_list&#45;&gt;a_node</title>
<path fill="none" stroke="black" stroke-dasharray="5,2" d="M197.84,-939.82C197.27,-931.33 196.57,-920.86 195.92,-911.22"/>
<polygon fill="black" stroke="black" points="199.43,-911.3 195.27,-901.55 192.45,-911.77 199.43,-911.3"/>
</g>
<!-- get_url -->
<g id="node8" class="node">
<title>get_url</title>
<g id="a_node8"><a xlink:href="https://github.com/guy4261/polkadot2/blob/main/polkadot.py" xlink:title="get_url">
<ellipse fill="lightgreen" stroke="lightgreen" cx="73" cy="-809.6" rx="37.02" ry="18"/>
<text text-anchor="middle" x="73" y="-804.55" font-family="Times,serif" font-size="14.00">get_url</text>
</a>
</g>
</g>
<!-- a_node&#45;&gt;get_url -->
<g id="edge6" class="edge">
<title>a_node&#45;&gt;get_url</title>
<path fill="none" stroke="black" d="M166.54,-864.72C148.58,-854.32 125,-840.68 106.01,-829.7"/>
<polygon fill="black" stroke="black" points="107.99,-826.8 97.59,-824.82 104.49,-832.86 107.99,-826.8"/>
</g>
<!-- get_fingerprint -->
<g id="node9" class="node">
<title>get_fingerprint</title>
<g id="a_node9"><a xlink:href="https://github.com/guy4261/polkadot2/blob/main/polkadot.py" xlink:title="get_fingerprint">
<ellipse fill="lightgreen" stroke="lightgreen" cx="194" cy="-809.6" rx="66.19" ry="18"/>
<text text-anchor="middle" x="194" y="-804.55" font-family="Times,serif" font-size="14.00">get_fingerprint</text>
</a>
</g>
</g>
<!-- a_node&#45;&gt;get_fingerprint -->
<g id="edge8" class="edge">
<title>a_node&#45;&gt;get_fingerprint</title>
<path fill="none" stroke="black" d="M194,-863.3C194,-856.01 194,-847.33 194,-839.14"/>
<polygon fill="black" stroke="black" points="197.5,-839.22 194,-829.22 190.5,-839.22 197.5,-839.22"/>
</g>
<!-- url -->
<g id="node10" class="node">
<title>url</title>
<polygon fill="none" stroke="black" points="109,-755.6 55,-755.6 55,-719.6 109,-719.6 109,-755.6"/>
<text text-anchor="middle" x="82" y="-732.55" font-family="Times,serif" font-size="14.00">url</text>
</g>
<!-- get_url&#45;&gt;url -->
<g id="edge7" class="edge">
<title>get_url&#45;&gt;url</title>
<path fill="none" stroke="black" d="M75.22,-791.3C76.17,-783.92 77.3,-775.12 78.37,-766.85"/>
<polygon fill="black" stroke="black" points="81.8,-767.57 79.61,-757.21 74.86,-766.68 81.8,-767.57"/>
</g>
<!-- fingerprint -->
<g id="node11" class="node">
<title>fingerprint</title>
<polygon fill="none" stroke="black" points="259.88,-679.6 186.12,-679.6 186.12,-643.6 259.88,-643.6 259.88,-679.6"/>
<text text-anchor="middle" x="223" y="-656.55" font-family="Times,serif" font-size="14.00">fingerprint</text>
</g>
<!-- get_fingerprint&#45;&gt;fingerprint -->
<g id="edge9" class="edge">
<title>get_fingerprint&#45;&gt;fingerprint</title>
<path fill="none" stroke="black" d="M197.44,-791.28C202.37,-766.47 211.49,-720.55 217.4,-690.8"/>
<polygon fill="black" stroke="black" points="220.75,-691.87 219.27,-681.38 213.89,-690.51 220.75,-691.87"/>
</g>
<!-- get_url_contents -->
<g id="node12" class="node">
<title>get_url_contents</title>
<g id="a_node12"><a xlink:href="https://github.com/guy4261/polkadot2/blob/main/polkadot.py" xlink:title="get_url_contents">
<ellipse fill="lightgreen" stroke="lightgreen" cx="92" cy="-661.6" rx="72.34" ry="18"/>
<ellipse fill="none" stroke="lightgreen" cx="92" cy="-661.6" rx="76.34" ry="22"/>
<text text-anchor="middle" x="92" y="-656.55" font-family="Times,serif" font-size="14.00">get_url_contents</text>
</a>
</g>
</g>
<!-- url&#45;&gt;get_url_contents -->
<g id="edge10" class="edge">
<title>url&#45;&gt;get_url_contents</title>
<path fill="none" stroke="black" d="M84.32,-719.44C85.29,-712.24 86.46,-703.62 87.58,-695.3"/>
<polygon fill="black" stroke="black" points="91.05,-695.78 88.92,-685.4 84.11,-694.85 91.05,-695.78"/>
</g>
<!-- contains -->
<g id="node14" class="node">
<title>contains</title>
<g id="a_node14"><a xlink:href="https://github.com/guy4261/polkadot2/blob/main/polkadot.py" xlink:title="contains?">
<ellipse fill="lightgreen" stroke="lightgreen" cx="192" cy="-513.6" rx="45.72" ry="18"/>
<text text-anchor="middle" x="192" y="-508.55" font-family="Times,serif" font-size="14.00">contains?</text>
</a>
</g>
</g>
<!-- fingerprint&#45;&gt;contains -->
<g id="edge12" class="edge">
<title>fingerprint&#45;&gt;contains</title>
<path fill="none" stroke="black" d="M219.32,-643.28C214.06,-618.47 204.3,-572.55 197.99,-542.8"/>
<polygon fill="black" stroke="black" points="201.49,-542.43 195.99,-533.38 194.64,-543.89 201.49,-542.43"/>
</g>
<!-- contents -->
<g id="node13" class="node">
<title>contents</title>
<polygon fill="none" stroke="black" points="154.5,-603.6 93.5,-603.6 93.5,-567.6 154.5,-567.6 154.5,-603.6"/>
<text text-anchor="middle" x="124" y="-580.55" font-family="Times,serif" font-size="14.00">contents</text>
</g>
<!-- get_url_contents&#45;&gt;contents -->
<g id="edge11" class="edge">
<title>get_url_contents&#45;&gt;contents</title>
<path fill="none" stroke="black" d="M101.08,-639.59C104.48,-631.75 108.38,-622.72 112,-614.36"/>
<polygon fill="black" stroke="black" points="115.16,-615.87 115.91,-605.3 108.73,-613.09 115.16,-615.87"/>
</g>
<!-- contents&#45;&gt;contains -->
<g id="edge13" class="edge">
<title>contents&#45;&gt;contains</title>
<path fill="none" stroke="black" d="M140.81,-567.3C149.12,-558.74 159.29,-548.27 168.37,-538.93"/>
<polygon fill="black" stroke="black" points="170.8,-541.44 175.26,-531.83 165.78,-536.56 170.8,-541.44"/>
</g>
<!-- a_result -->
<g id="node15" class="node">
<title>a_result</title>
<polygon fill="none" stroke="black" points="221.38,-459.6 162.62,-459.6 162.62,-423.6 221.38,-423.6 221.38,-459.6"/>
<text text-anchor="middle" x="192" y="-436.55" font-family="Times,serif" font-size="14.00">a_result</text>
</g>
<!-- contains&#45;&gt;a_result -->
<g id="edge14" class="edge">
<title>contains&#45;&gt;a_result</title>
<path fill="none" stroke="black" d="M192,-495.3C192,-488.01 192,-479.33 192,-471.14"/>
<polygon fill="black" stroke="black" points="195.5,-471.22 192,-461.22 188.5,-471.22 195.5,-471.22"/>
</g>
<!-- result_list -->
<g id="node16" class="node">
<title>result_list</title>
<polygon fill="none" stroke="black" points="226.62,-387.6 157.38,-387.6 157.38,-351.6 226.62,-351.6 226.62,-387.6"/>
<text text-anchor="middle" x="192" y="-364.55" font-family="Times,serif" font-size="14.00">result_list</text>
</g>
<!-- a_result&#45;&gt;result_list -->
<g id="edge15" class="edge">
<title>a_result&#45;&gt;result_list</title>
<path fill="none" stroke="black" stroke-dasharray="5,2" d="M192,-423.3C192,-416.01 192,-407.33 192,-399.14"/>
<polygon fill="black" stroke="black" points="195.5,-399.22 192,-389.22 188.5,-399.22 195.5,-399.22"/>
</g>
<!-- apply_style -->
<g id="node19" class="node">
<title>apply_style</title>
<g id="a_node19"><a xlink:href="https://github.com/guy4261/polkadot2/blob/main/polkadot.py" xlink:title="apply_style">
<ellipse fill="lightgreen" stroke="lightgreen" cx="240" cy="-297.6" rx="53.4" ry="18"/>
<text text-anchor="middle" x="240" y="-292.55" font-family="Times,serif" font-size="14.00">apply_style</text>
</a>
</g>
</g>
<!-- result_list&#45;&gt;apply_style -->
<g id="edge16" class="edge">
<title>result_list&#45;&gt;apply_style</title>
<path fill="none" stroke="black" d="M203.87,-351.3C209.41,-343.21 216.13,-333.41 222.26,-324.47"/>
<polygon fill="black" stroke="black" points="224.98,-326.7 227.75,-316.47 219.2,-322.74 224.98,-326.7"/>
</g>
<!-- graph_object_0&#45;&gt;apply_style -->
<g id="edge17" class="edge">
<title>graph_object_0&#45;&gt;apply_style</title>
<path fill="none" stroke="black" d="M276.13,-351.3C270.59,-343.21 263.87,-333.41 257.74,-324.47"/>
<polygon fill="black" stroke="black" points="260.8,-322.74 252.25,-316.47 255.02,-326.7 260.8,-322.74"/>
</g>
<!-- styled_graph -->
<g id="node18" class="node">
<title>styled_graph</title>
<polygon fill="none" stroke="black" points="282.88,-243.6 197.12,-243.6 197.12,-207.6 282.88,-207.6 282.88,-243.6"/>
<text text-anchor="middle" x="240" y="-220.55" font-family="Times,serif" font-size="14.00">styled_graph</text>
</g>
<!-- dotfile_write -->
<g id="node20" class="node">
<title>dotfile_write</title>
<g id="a_node20"><a xlink:href="https://github.com/guy4261/polkadot2/blob/main/polkadot.py" xlink:title="dotfile_write">
<ellipse fill="none" stroke="black" cx="240" cy="-149.6" rx="58.52" ry="18"/>
<ellipse fill="none" stroke="black" cx="240" cy="-149.6" rx="62.52" ry="22"/>
<text text-anchor="middle" x="240" y="-144.55" font-family="Times,serif" font-size="14.00">dotfile_write</text>
</a>
</g>
</g>
<!-- styled_graph&#45;&gt;dotfile_write -->
<g id="edge19" class="edge">
<title>styled_graph&#45;&gt;dotfile_write</title>
<path fill="none" stroke="black" d="M240,-207.44C240,-200.24 240,-191.62 240,-183.3"/>
<polygon fill="black" stroke="black" points="243.5,-183.42 240,-173.42 236.5,-183.42 243.5,-183.42"/>
</g>
<!-- apply_style&#45;&gt;styled_graph -->
<g id="edge18" class="edge">
<title>apply_style&#45;&gt;styled_graph</title>
<path fill="none" stroke="black" d="M240,-279.3C240,-272.01 240,-263.33 240,-255.14"/>
<polygon fill="black" stroke="black" points="243.5,-255.22 240,-245.22 236.5,-255.22 243.5,-255.22"/>
</g>
<!-- styled_dotfile -->
<g id="node21" class="node">
<title>styled_dotfile</title>
<polygon fill="none" stroke="black" points="285.12,-87.6 194.88,-87.6 194.88,-51.6 285.12,-51.6 285.12,-87.6"/>
<polygon fill="none" stroke="black" points="289.12,-91.6 190.88,-91.6 190.88,-47.6 289.12,-47.6 289.12,-91.6"/>
<text text-anchor="middle" x="240" y="-64.55" font-family="Times,serif" font-size="14.00">styled_dotfile</text>
</g>
<!-- dotfile_write&#45;&gt;styled_dotfile -->
<g id="edge20" class="edge">
<title>dotfile_write&#45;&gt;styled_dotfile</title>
<path fill="none" stroke="black" d="M240,-127.29C240,-119.89 240,-111.42 240,-103.32"/>
<polygon fill="black" stroke="black" points="243.5,-103.4 240,-93.4 236.5,-103.4 243.5,-103.4"/>
</g>
<!-- end -->
<g id="node22" class="node">
<title>end</title>
<ellipse fill="black" stroke="black" cx="240" cy="-5.8" rx="1.8" ry="1.8"/>
<ellipse fill="none" stroke="black" cx="240" cy="-5.8" rx="5.8" ry="5.8"/>
</g>
<!-- styled_dotfile&#45;&gt;end -->
<g id="edge21" class="edge">
<title>styled_dotfile&#45;&gt;end</title>
<path fill="none" stroke="black" d="M240,-47.33C240,-39.48 240,-30.7 240,-23.32"/>
<polygon fill="black" stroke="black" points="243.5,-23.59 240,-13.59 236.5,-23.59 243.5,-23.59"/>
</g>
</g>
</svg>
